<svg xmlns="http://www.w3.org/2000/svg" version="1.1" xmlns:xlink="http://www.w3.org/1999/xlink" xmlns:svgjs="http://svgjs.dev/svgjs" width="640" height="1400" preserveAspectRatio="none" viewBox="0 0 640 1400"><g mask="url(&quot;#SvgjsMask1020&quot;)" fill="none"><path d="M197.4044670261597 394.4425391094419L264.31219555476173 382.6449013519319 213.16187465419569 288.18212743778383z" fill="rgba(107, 40, 217, 0.4)" class="triangle-float3"></path><path d="M158.9605256324401 285.5666774525063L246.97831638931294 379.95420218567654 341.3658411224832 291.9364114288037 253.34805036561033 197.54888669563348z" fill="rgba(107, 40, 217, 0.4)" class="triangle-float1"></path><path d="M40.885447809636524 767.0498812469342L19.172112745848253 842.7732795723466 143.6138777658611 837.4815830053228z" fill="rgba(107, 40, 217, 0.4)" class="triangle-float3"></path><path d="M448.43518712897543 669.8525312364977L607.6536705612631 727.8033199508568 506.3859758433345 510.63404780421007z" fill="rgba(107, 40, 217, 0.4)" class="triangle-float2"></path><path d="M34.61 1165.06 a210.84 210.84 0 1 0 421.68 0 a210.84 210.84 0 1 0 -421.68 0z" fill="rgba(107, 40, 217, 0.4)" class="triangle-float2"></path><path d="M439.96 363.41 a163.56 163.56 0 1 0 327.12 0 a163.56 163.56 0 1 0 -327.12 0z" fill="rgba(107, 40, 217, 0.4)" class="triangle-float3"></path></g><defs><mask id="SvgjsMask1020"><rect width="640" height="1400" fill="#ffffff"></rect></mask><style>
                @keyframes float1 {
                    0%{transform: translate(0, 0)}
                    50%{transform: translate(-10px, 0)}
                    100%{transform: translate(0, 0)}
                }

                .triangle-float1 {
                    animation: float1 5s infinite;
                }

                @keyframes float2 {
                    0%{transform: translate(0, 0)}
                    50%{transform: translate(-5px, -5px)}
                    100%{transform: translate(0, 0)}
                }

                .triangle-float2 {
                    animation: float2 4s infinite;
                }

                @keyframes float3 {
                    0%{transform: translate(0, 0)}
                    50%{transform: translate(0, -10px)}
                    100%{transform: translate(0, 0)}
                }

                .triangle-float3 {
                    animation: float3 6s infinite;
                }
            </style></defs></svg>