<svg xmlns="http://www.w3.org/2000/svg" version="1.1" xmlns:xlink="http://www.w3.org/1999/xlink" xmlns:svgjs="http://svgjs.dev/svgjs" width="820" height="1180" preserveAspectRatio="none" viewBox="0 0 820 1180"><g mask="url(&quot;#SvgjsMask1119&quot;)" fill="none"><path d="M822.725,678.036C887.174,675.466,918.669,606.363,949.979,549.972C979.924,496.04,1014.867,436.66,987.419,381.416C957.767,321.737,889.322,291.477,822.725,293.854C759.959,296.094,707.357,337.391,677.205,392.486C648.323,445.259,649.275,507.273,676.59,560.873C706.974,620.494,755.861,680.702,822.725,678.036" fill="rgba(107, 40, 217, 0.4)" class="triangle-float1"></path><path d="M122.77,1013.089C183.527,1009.994,225.652,959.296,255.304,906.175C284,854.767,301.253,794.538,273.853,742.428C244.756,687.091,185.288,653.472,122.77,654.119C61.31,654.755,8.351,692.629,-22.99,745.501C-55.039,799.568,-65.485,865.791,-35.42,920.986C-4.137,978.416,57.458,1016.417,122.77,1013.089" fill="rgba(107, 40, 217, 0.4)" class="triangle-float3"></path><path d="M867.609,1168.338C938.432,1167.169,1009.647,1145.34,1047.818,1085.672C1088.939,1021.393,1098.596,936.256,1057,872.283C1018.081,812.427,938.744,802.415,867.609,808.514C807.845,813.638,760.706,850.812,727.196,900.561C687.724,959.161,643.985,1029.221,676.796,1091.794C710.906,1156.844,794.168,1169.55,867.609,1168.338" fill="rgba(107, 40, 217, 0.4)" class="triangle-float2"></path><path d="M193.623,79.97C229.154,81.016,263.234,63.247,281.059,32.493C298.933,1.654,296.855,-36.431,278.952,-67.253C261.134,-97.929,229.086,-118.95,193.623,-118.036C159.526,-117.158,131.839,-93.029,115.583,-63.044C100.149,-34.575,99.16,-0.833,114.672,27.594C130.886,57.307,159.789,78.974,193.623,79.97" fill="rgba(107, 40, 217, 0.4)" class="triangle-float3"></path><path d="M761.114,805.959C799.611,803.584,830.327,777.422,849.488,743.948C868.503,710.729,876.967,670.235,857.752,637.132C838.6,604.138,799.264,591.755,761.114,591.703C722.856,591.651,685.225,605.025,664.019,636.868C640.267,672.533,630.253,719,651.591,756.159C672.995,793.435,718.212,808.606,761.114,805.959" fill="rgba(107, 40, 217, 0.4)" class="triangle-float1"></path><path d="M507.68 411.47 a177.12 177.12 0 1 0 354.24 0 a177.12 177.12 0 1 0 -354.24 0z" fill="rgba(107, 40, 217, 0.4)" class="triangle-float2"></path></g><defs><mask id="SvgjsMask1119"><rect width="820" height="1180" fill="#ffffff"></rect></mask><style>
                @keyframes float1 {
                    0%{transform: translate(0, 0)}
                    50%{transform: translate(-10px, 0)}
                    100%{transform: translate(0, 0)}
                }

                .triangle-float1 {
                    animation: float1 5s infinite;
                }

                @keyframes float2 {
                    0%{transform: translate(0, 0)}
                    50%{transform: translate(-5px, -5px)}
                    100%{transform: translate(0, 0)}
                }

                .triangle-float2 {
                    animation: float2 4s infinite;
                }

                @keyframes float3 {
                    0%{transform: translate(0, 0)}
                    50%{transform: translate(0, -10px)}
                    100%{transform: translate(0, 0)}
                }

                .triangle-float3 {
                    animation: float3 6s infinite;
                }
            </style></defs></svg>