<svg xmlns="http://www.w3.org/2000/svg" version="1.1" xmlns:xlink="http://www.w3.org/1999/xlink" xmlns:svgjs="http://svgjs.dev/svgjs" width="1920" height="1080" preserveAspectRatio="none" viewBox="0 0 1920 1080"><g mask="url(&quot;#SvgjsMask1083&quot;)" fill="none"><path d="M551.5955524179129 29.17340091717601L438.6351499252632-115.4093210224531 278.2412682621444 126.322643686336z" fill="rgba(107, 40, 217, 0.4)" class="triangle-float1"></path><path d="M1410.4626314826014 1117.4360621623198L1641.9857904042037 1154.3319438865578 1571.891679726762 961.7499575635343z" fill="rgba(107, 40, 217, 0.4)" class="triangle-float3"></path><path d="M1712.303,1079.158C1802.977,1074.327,1890.797,1046.425,1942.749,971.952C2003.928,884.252,2042.463,771.651,1992.924,676.888C1940.586,576.77,1824.857,521.412,1712.303,531.132C1612.634,539.739,1555.717,632.99,1504.71,719.05C1452.157,807.718,1383.524,909.708,1435.001,999.005C1486.505,1088.349,1609.323,1084.645,1712.303,1079.158" fill="rgba(107, 40, 217, 0.4)" class="triangle-float2"></path><path d="M248 796.82 a188.05 188.05 0 1 0 376.1 0 a188.05 188.05 0 1 0 -376.1 0z" fill="rgba(107, 40, 217, 0.4)" class="triangle-float3"></path><path d="M1031.79 390 a195.44 195.44 0 1 0 390.88 0 a195.44 195.44 0 1 0 -390.88 0z" fill="rgba(107, 40, 217, 0.4)" class="triangle-float1"></path><path d="M905.5576301791135 440.82167132375935L1194.0401007374733 260.9398690651346 934.1142784914846 116.86063308787965z" fill="rgba(107, 40, 217, 0.4)" class="triangle-float3"></path></g><defs><mask id="SvgjsMask1083"><rect width="1920" height="1080" fill="#ffffff"></rect></mask><style>
                @keyframes float1 {
                    0%{transform: translate(0, 0)}
                    50%{transform: translate(-10px, 0)}
                    100%{transform: translate(0, 0)}
                }

                .triangle-float1 {
                    animation: float1 5s infinite;
                }

                @keyframes float2 {
                    0%{transform: translate(0, 0)}
                    50%{transform: translate(-5px, -5px)}
                    100%{transform: translate(0, 0)}
                }

                .triangle-float2 {
                    animation: float2 4s infinite;
                }

                @keyframes float3 {
                    0%{transform: translate(0, 0)}
                    50%{transform: translate(0, -10px)}
                    100%{transform: translate(0, 0)}
                }

                .triangle-float3 {
                    animation: float3 6s infinite;
                }
            </style></defs></svg>