<svg xmlns="http://www.w3.org/2000/svg" version="1.1" xmlns:xlink="http://www.w3.org/1999/xlink" xmlns:svgjs="http://svgjs.dev/svgjs" width="1920" height="1080" preserveAspectRatio="none" viewBox="0 0 1920 1080"><g mask="url(&quot;#SvgjsMask1093&quot;)" fill="none"><path d="M266 1031L265 281" stroke-width="10" stroke="url(&quot;#SvgjsLinearGradient1094&quot;)" stroke-linecap="round" class="Down"></path><path d="M1304 593L1303 280" stroke-width="6" stroke="url(&quot;#SvgjsLinearGradient1095&quot;)" stroke-linecap="round" class="Up"></path><path d="M18 788L17 394" stroke-width="10" stroke="url(&quot;#SvgjsLinearGradient1095&quot;)" stroke-linecap="round" class="Up"></path><path d="M914 613L913 165" stroke-width="10" stroke="url(&quot;#SvgjsLinearGradient1095&quot;)" stroke-linecap="round" class="Up"></path><path d="M231 86L230 -355" stroke-width="10" stroke="url(&quot;#SvgjsLinearGradient1094&quot;)" stroke-linecap="round" class="Down"></path><path d="M1423 859L1422 233" stroke-width="8" stroke="url(&quot;#SvgjsLinearGradient1094&quot;)" stroke-linecap="round" class="Down"></path><path d="M1459 627L1458 1164" stroke-width="10" stroke="url(&quot;#SvgjsLinearGradient1094&quot;)" stroke-linecap="round" class="Down"></path><path d="M971 790L970 1086" stroke-width="10" stroke="url(&quot;#SvgjsLinearGradient1094&quot;)" stroke-linecap="round" class="Down"></path><path d="M1162 295L1161 -212" stroke-width="6" stroke="url(&quot;#SvgjsLinearGradient1095&quot;)" stroke-linecap="round" class="Up"></path><path d="M470 473L469 -182" stroke-width="10" stroke="url(&quot;#SvgjsLinearGradient1095&quot;)" stroke-linecap="round" class="Up"></path><path d="M1475 1055L1474 723" stroke-width="8" stroke="url(&quot;#SvgjsLinearGradient1094&quot;)" stroke-linecap="round" class="Down"></path><path d="M1304 458L1303 9" stroke-width="8" stroke="url(&quot;#SvgjsLinearGradient1095&quot;)" stroke-linecap="round" class="Up"></path><path d="M1084 43L1083 -281" stroke-width="10" stroke="url(&quot;#SvgjsLinearGradient1094&quot;)" stroke-linecap="round" class="Down"></path><path d="M323 452L322 -246" stroke-width="6" stroke="url(&quot;#SvgjsLinearGradient1094&quot;)" stroke-linecap="round" class="Down"></path><path d="M363 1018L362 347" stroke-width="8" stroke="url(&quot;#SvgjsLinearGradient1094&quot;)" stroke-linecap="round" class="Down"></path><path d="M1558 683L1557 1159" stroke-width="6" stroke="url(&quot;#SvgjsLinearGradient1094&quot;)" stroke-linecap="round" class="Down"></path><path d="M483 190L482 -490" stroke-width="10" stroke="url(&quot;#SvgjsLinearGradient1095&quot;)" stroke-linecap="round" class="Up"></path><path d="M128 1073L127 1489" stroke-width="10" stroke="url(&quot;#SvgjsLinearGradient1094&quot;)" stroke-linecap="round" class="Down"></path><path d="M320 172L319 -172" stroke-width="8" stroke="url(&quot;#SvgjsLinearGradient1094&quot;)" stroke-linecap="round" class="Down"></path><path d="M293 508L292 -117" stroke-width="6" stroke="url(&quot;#SvgjsLinearGradient1094&quot;)" stroke-linecap="round" class="Down"></path><path d="M356 758L355 102" stroke-width="10" stroke="url(&quot;#SvgjsLinearGradient1094&quot;)" stroke-linecap="round" class="Down"></path><path d="M1893 413L1892 31" stroke-width="6" stroke="url(&quot;#SvgjsLinearGradient1094&quot;)" stroke-linecap="round" class="Down"></path><path d="M1046 360L1045 -285" stroke-width="6" stroke="url(&quot;#SvgjsLinearGradient1094&quot;)" stroke-linecap="round" class="Down"></path><path d="M1424 641L1423 -140" stroke-width="8" stroke="url(&quot;#SvgjsLinearGradient1094&quot;)" stroke-linecap="round" class="Down"></path><path d="M789 526L788 1142" stroke-width="10" stroke="url(&quot;#SvgjsLinearGradient1094&quot;)" stroke-linecap="round" class="Down"></path><path d="M871 422L870 1229" stroke-width="8" stroke="url(&quot;#SvgjsLinearGradient1094&quot;)" stroke-linecap="round" class="Down"></path><path d="M1194 320L1193 -75" stroke-width="6" stroke="url(&quot;#SvgjsLinearGradient1094&quot;)" stroke-linecap="round" class="Down"></path><path d="M98 690L97 975" stroke-width="10" stroke="url(&quot;#SvgjsLinearGradient1095&quot;)" stroke-linecap="round" class="Up"></path><path d="M416 661L415 1369" stroke-width="6" stroke="url(&quot;#SvgjsLinearGradient1095&quot;)" stroke-linecap="round" class="Up"></path><path d="M1437 274L1436 790" stroke-width="6" stroke="url(&quot;#SvgjsLinearGradient1094&quot;)" stroke-linecap="round" class="Down"></path><path d="M1743 166L1742 656" stroke-width="10" stroke="url(&quot;#SvgjsLinearGradient1094&quot;)" stroke-linecap="round" class="Down"></path><path d="M1836 230L1835 -242" stroke-width="6" stroke="url(&quot;#SvgjsLinearGradient1095&quot;)" stroke-linecap="round" class="Up"></path><path d="M1059 606L1058 967" stroke-width="6" stroke="url(&quot;#SvgjsLinearGradient1094&quot;)" stroke-linecap="round" class="Down"></path><path d="M1208 270L1207 1035" stroke-width="8" stroke="url(&quot;#SvgjsLinearGradient1094&quot;)" stroke-linecap="round" class="Down"></path><path d="M1560 382L1559 1025" stroke-width="6" stroke="url(&quot;#SvgjsLinearGradient1095&quot;)" stroke-linecap="round" class="Up"></path><path d="M1760 266L1759 -61" stroke-width="10" stroke="url(&quot;#SvgjsLinearGradient1095&quot;)" stroke-linecap="round" class="Up"></path><path d="M1515 44L1514 506" stroke-width="8" stroke="url(&quot;#SvgjsLinearGradient1095&quot;)" stroke-linecap="round" class="Up"></path><path d="M434 208L433 -515" stroke-width="8" stroke="url(&quot;#SvgjsLinearGradient1095&quot;)" stroke-linecap="round" class="Up"></path><path d="M1084 481L1083 -86" stroke-width="6" stroke="url(&quot;#SvgjsLinearGradient1095&quot;)" stroke-linecap="round" class="Up"></path><path d="M526 739L525 450" stroke-width="6" stroke="url(&quot;#SvgjsLinearGradient1094&quot;)" stroke-linecap="round" class="Down"></path><path d="M951 124L950 -520" stroke-width="8" stroke="url(&quot;#SvgjsLinearGradient1094&quot;)" stroke-linecap="round" class="Down"></path><path d="M1743 240L1742 549" stroke-width="6" stroke="url(&quot;#SvgjsLinearGradient1095&quot;)" stroke-linecap="round" class="Up"></path><path d="M4 229L3 -512" stroke-width="6" stroke="url(&quot;#SvgjsLinearGradient1095&quot;)" stroke-linecap="round" class="Up"></path><path d="M46 318L45 918" stroke-width="8" stroke="url(&quot;#SvgjsLinearGradient1094&quot;)" stroke-linecap="round" class="Down"></path><path d="M544 373L543 -69" stroke-width="10" stroke="url(&quot;#SvgjsLinearGradient1094&quot;)" stroke-linecap="round" class="Down"></path><path d="M1065 708L1064 -86" stroke-width="8" stroke="url(&quot;#SvgjsLinearGradient1094&quot;)" stroke-linecap="round" class="Down"></path><path d="M308 608L307 967" stroke-width="8" stroke="url(&quot;#SvgjsLinearGradient1095&quot;)" stroke-linecap="round" class="Up"></path><path d="M770 261L769 688" stroke-width="6" stroke="url(&quot;#SvgjsLinearGradient1095&quot;)" stroke-linecap="round" class="Up"></path></g><defs><mask id="SvgjsMask1093"><rect width="1920" height="1080" fill="#ffffff"></rect></mask><linearGradient x1="0%" y1="0%" x2="0%" y2="100%" id="SvgjsLinearGradient1094"><stop stop-color="rgba(107, 40, 217, 0)" offset="0"></stop><stop stop-color="rgba(107, 40, 217, 0.4)" offset="1"></stop></linearGradient><linearGradient x1="0%" y1="100%" x2="0%" y2="0%" id="SvgjsLinearGradient1095"><stop stop-color="rgba(107, 40, 217, 0)" offset="0"></stop><stop stop-color="rgba(107, 40, 217, 0.4)" offset="1"></stop></linearGradient></defs></svg>